<?xml version="1.0" encoding="UTF-8" standalone="no"?>
<!-- Created with Inkscape (http://www.inkscape.org/) -->

<svg
   width="2048"
   height="1000"
   viewBox="0 0 541.86664 264.58334"
   version="1.1"
   id="svg1"
   inkscape:version="1.3 (0e150ed, 2023-07-21)"
   sodipodi:docname="kitl-text.svg"
   xmlns:inkscape="http://www.inkscape.org/namespaces/inkscape"
   xmlns:sodipodi="http://sodipodi.sourceforge.net/DTD/sodipodi-0.dtd"
   xmlns="http://www.w3.org/2000/svg"
   xmlns:svg="http://www.w3.org/2000/svg"
   xmlns:rdf="http://www.w3.org/1999/02/22-rdf-syntax-ns#"
   xmlns:cc="http://creativecommons.org/ns#"
   xmlns:dc="http://purl.org/dc/elements/1.1/">
  <defs
     id="defs1">
    <inkscape:path-effect
       effect="fill_between_many"
       method="originald"
       linkedpaths="#path1,0,1"
       id="path-effect6"
       is_visible="true"
       lpeversion="0"
       join="true"
       close="true"
       autoreverse="true" />
  </defs>
  <sodipodi:namedview
     id="base"
     pagecolor="#ffffff"
     bordercolor="#000000"
     borderopacity="0.3"
     inkscape:pageopacity="0.0"
     inkscape:pageshadow="2"
     inkscape:zoom="0.29585021"
     inkscape:cx="1132.3298"
     inkscape:cy="163.93431"
     inkscape:document-units="px"
     inkscape:showpageshadow="2"
     inkscape:pagecheckerboard="true"
     inkscape:deskcolor="#d1d1d1"
     showguides="true"
     inkscape:window-width="1440"
     inkscape:window-height="1022"
     inkscape:window-x="460"
     inkscape:window-y="30"
     inkscape:window-maximized="0"
     inkscape:current-layer="svg1">
    <sodipodi:guide
       position="306.81452,-0.92923799"
       orientation="0,-1"
       id="guide2"
       inkscape:locked="false" />
    <sodipodi:guide
       position="293.65236,266.85267"
       orientation="1,0"
       id="guide3"
       inkscape:locked="false" />
    <sodipodi:guide
       position="305.90679,316.77811"
       orientation="0,-1"
       id="guide9"
       inkscape:locked="false" />
  </sodipodi:namedview>
  <metadata
     id="metadata1">
    <rdf:RDF>
      <cc:Work
         rdf:about="">
        <dc:format>image/svg+xml</dc:format>
        <dc:type
           rdf:resource="http://purl.org/dc/dcmitype/StillImage" />
      </cc:Work>
    </rdf:RDF>
  </metadata>
  <path
     id="path13"
     style="color:#000000;fill:#fbfbfb;fill-opacity:1;stroke:#fffcf8;stroke-width:21.1667;stroke-dasharray:none;stroke-opacity:1"
     d="m 196.74147,33.584513 c -3.05259,0 -5.51026,2.457666 -5.51026,5.510258 v 46.87104 A 17.90782,17.90782 0 0 0 179.38698,102.7684 17.90782,17.90782 0 0 0 197.29493,120.67636 17.90782,17.90782 0 0 0 215.20236,102.7684 17.90782,17.90782 0 0 0 202.25173,85.565319 V 39.094771 c 0,-3.052592 -2.45767,-5.510258 -5.51026,-5.510258 z M 67.821699,36.632905 c -10.563654,10e-7 -21.127617,4.047007 -29.221988,12.141379 -16.18875,16.188748 -16.188749,42.25472 0,58.443456 l 97.405949,97.40594 c 12.76475,12.76475 31.65493,15.4199 47.01727,8.05481 L 92.173185,121.82874 c -2.698127,-2.69812 -2.698123,-7.04236 0,-9.74049 2.698127,-2.69813 7.042363,-2.69813 9.740485,0 l 92.53544,92.53543 24.35148,24.35148 c 2.69814,2.69814 7.04237,2.69813 9.7405,0 2.69812,-2.69811 2.69814,-7.04286 0,-9.741 L 202.5034,193.19699 c 7.36507,-15.3623 4.71045,-34.25204 -8.05429,-47.01676 L 141.91898,93.6501 v 20.94859 c 0,3.81574 -3.0717,6.88744 -6.88743,6.88743 -3.81572,1e-5 -6.88744,-3.07171 -6.88743,-6.88743 V 79.87471 L 112.69751,64.428625 v 20.948074 c -10e-6,3.815741 -3.07169,6.887938 -6.88743,6.887948 -3.81574,0 -6.887957,-3.072207 -6.887954,-6.887948 V 50.653238 L 97.043171,48.774284 C 88.948798,40.679909 78.385354,36.632904 67.821699,36.632905 Z m 57.946331,27.151831 13.77694,13.776937 h 45.71349 c 1.6e-4,-4.592289 -0.004,-9.184638 -0.003,-13.776937 z m 81.51286,0.933793 c -2.5e-4,4.752111 0.004,9.503855 0.003,14.255978 10.00308,3.424846 17.06614,12.797293 17.06614,24.069853 0,14.23739 -11.24735,25.48475 -25.48475,25.48475 h -8.35195 l 13.40952,13.40951 c 19.24913,-2.49798 34.20204,-18.98105 34.20204,-38.89426 0,-18.740162 -13.24082,-34.454849 -30.84359,-38.325831 z"
     inkscape:label="white" />
  <g
     id="g13"
     transform="matrix(1.0412785,0,0,1.0412785,5.9417131,-13.440573)">
    <path
       id="rect1"
       style="color:#000000;fill:#9bc4d5;fill-opacity:1;-inkscape-stroke:none"
       d="m 115.07618,74.163948 13.23072,13.230716 h 43.90119 c 1.5e-4,-4.410245 -0.004,-8.820461 -0.003,-13.230716 z m 78.28152,0.896586 c -2.4e-4,4.563732 0.004,9.127411 0.003,13.691154 9.60655,3.289081 16.3897,12.289682 16.3897,23.115382 0,13.67301 -10.80147,24.47448 -24.47448,24.47448 h -8.02122 l 12.87829,12.87828 c 18.48607,-2.39895 32.84605,-18.22893 32.84605,-37.35276 0,-17.997275 -12.71596,-33.089004 -29.62093,-36.806536 z"
       inkscape:label="node" />
    <path
       id="rect6"
       style="fill:#1179ba;fill-opacity:1;stroke:none;stroke-width:7.17004;stroke-dasharray:none;stroke-opacity:1"
       d="m 87.490153,59.74861 c -15.547006,-15.547006 -40.579598,-15.547 -56.1266,10e-7 -15.547008,15.547008 -15.547007,40.579599 0,56.126599 l 93.544327,93.54434 c 12.25875,12.25874 30.40006,14.80881 45.15342,7.73568 L 82.812934,129.90686 c -2.591169,-2.59116 -2.591167,-6.76326 -2e-6,-9.35443 2.591171,-2.59117 6.763268,-2.59117 9.354438,0 l 88.86711,88.86712 23.38609,23.38608 c 2.59118,2.59118 6.76326,2.59117 9.35443,0 2.59116,-2.59116 2.59118,-6.76325 0,-9.35443 L 188.76979,198.446 c 7.07312,-14.75332 4.52342,-32.89433 -7.73531,-45.15305 l -50.44743,-50.44743 v 20.11787 c 0,3.66448 -2.95014,6.61462 -6.61461,6.61461 -3.66446,1e-5 -6.61461,-2.95014 -6.6146,-6.6146 l -10e-6,-33.347112 -14.83408,-14.83408 v 20.11788 c -1e-5,3.66448 -2.950127,6.614602 -6.614607,6.614612 -3.664481,0 -6.614613,-2.950132 -6.61461,-6.614612 l 3e-6,-33.347095 z"
       inkscape:label="feat" />
    <rect
       style="fill:#1179ba;fill-opacity:1;stroke:none;stroke-width:4.16071;stroke-dasharray:none;stroke-opacity:1"
       id="rect8"
       width="10.583333"
       height="79.375"
       x="177.94444"
       y="45.161015"
       ry="5.2916665"
       inkscape:label="edge" />
    <circle
       style="fill:#1179ba;fill-opacity:1;stroke:none;stroke-width:6.64309;stroke-dasharray:none;stroke-opacity:1"
       id="path9"
       cx="183.76735"
       cy="111.60238"
       r="17.197916"
       inkscape:label="handle" />
  </g>
  <g
     id="g14"
     transform="matrix(1.0412785,0,0,1.0412785,5.9417131,-13.440573)"
     inkscape:label="g14" />
  <path
     style="font-style:italic;font-size:176.389px;font-family:'Recursive Sans Linear Static';-inkscape-font-specification:'Recursive Sans Linear Static Italic';letter-spacing:-10.5833px;fill:#126aa6;stroke:#1179ba;stroke-width:0"
     d="m 318.28152,116.75296 c -13.05279,0 -24.1653,6.35001 -34.21947,17.63891 h -2.46945 c 4.40973,-17.46252 8.81945,-34.748639 13.22918,-52.211151 0.35278,-1.234723 -0.35278,-1.940279 -1.41112,-1.940279 h -14.2875 c -0.88195,3.70417 -2.46945,9.877785 -4.40973,17.462512 -9.52501,37.747248 -19.05001,75.318108 -28.57502,112.888968 -0.35278,1.23472 0.35278,1.94028 1.41111,1.94028 h 14.11112 c 5.29167,-20.63752 10.58334,-41.45142 15.87501,-62.08893 12.17085,-12.70001 23.28335,-18.69724 32.80836,-18.69724 4.93889,0 8.29028,1.05833 10.40695,3.175 2.11667,2.11667 2.46945,5.29167 1.41111,9.17223 l -0.88194,3.88056 c -2.29306,9.17223 -9.52501,14.64029 -25.92919,14.64029 h -9.70139 c -1.41111,4.7625 -2.64584,9.87778 -3.88056,14.81667 -0.52917,1.94028 -0.52917,2.46945 0.52917,4.23334 2.82222,4.23334 8.46667,13.40556 12.8764,20.8139 4.93889,7.93751 8.81945,10.05418 18.34445,10.05418 h 7.93751 c 1.94028,0 2.64583,-0.35278 2.99861,-2.11667 1.05833,-4.23334 2.11667,-7.93751 3.175,-11.99445 h -12.17084 c -4.7625,0 -5.46806,-0.52917 -8.29028,-4.9389 -2.99862,-4.40972 -8.1139,-12.70001 -12.34723,-19.2264 l 0.35278,-2.82222 h 3.70416 c 21.34307,0 34.74864,-6.87917 38.98197,-23.10696 l 1.41112,-5.11528 c 4.05694,-14.81668 -3.88056,-26.45836 -20.99029,-26.45836 z m 34.74841,1.94028 c -0.88195,4.05695 -1.94028,8.29029 -2.99862,12.17085 -0.35278,1.41111 0.35278,1.94027 1.41111,1.94027 h 15.69863 c -4.58612,18.34446 -9.17223,36.51253 -13.93474,55.56254 -3.35139,13.40557 1.23473,24.1653 19.57918,24.1653 h 5.99723 c 1.23472,0 2.11667,-0.17639 2.46945,-1.76389 1.05833,-4.23334 1.94028,-8.29029 2.99861,-12.34723 h -8.81945 c -2.82222,0 -4.7625,-0.52917 -5.82084,-1.58751 -1.41111,-1.41111 -1.41111,-4.05694 -0.35278,-8.29028 5.82084,-23.10696 11.2889,-45.33197 16.93335,-67.90977 0.35278,-1.41111 -0.35278,-1.94028 -1.41111,-1.94028 z M 377.548,76.007104 373.13827,93.293227 c -0.35278,1.234723 0.17639,1.940279 1.41111,1.940279 h 20.28474 l 4.40973,-17.286123 c 0.35277,-1.234723 -0.17639,-1.940279 -1.41112,-1.940279 z m 71.26076,121.355636 h -14.28751 c -7.05556,0 -11.81806,-0.88194 -14.28751,-3.70417 -2.99861,-3.175 -2.99861,-8.64306 -0.88194,-17.46251 3.52778,-14.28751 7.23194,-28.57502 10.75972,-42.68614 h 34.74864 c 1.05833,-4.58611 1.94028,-8.29028 3.175,-12.8764 0.17639,-1.05833 -0.35278,-1.94028 -1.41111,-1.94028 h -32.63197 c 2.29306,-9.17222 4.58612,-18.52084 6.87917,-27.69307 0.35278,-1.058334 -0.35277,-1.940279 -1.41111,-1.940279 h -14.11112 c -1.41111,5.644448 -2.82222,11.465289 -4.23333,17.109729 -1.05834,4.23334 -2.11667,8.29029 -3.17501,12.52362 h -17.46251 c -1.05833,4.58612 -2.11667,8.29029 -3.175,12.8764 -0.35278,1.23472 0.35278,1.94028 1.41111,1.94028 h 15.52223 c -3.52778,14.11112 -7.05556,28.04585 -10.58334,42.50975 -6.52639,25.40002 5.46806,36.51253 27.69308,36.51253 h 11.64167 c 1.05834,0 2.11667,-0.35278 2.46945,-1.94028 1.23472,-4.58612 2.11667,-8.64306 3.35139,-13.22918 z M 493.2585,99.643231 c -7.40834,29.280579 -14.64029,58.913929 -22.04863,88.018119 -4.40972,17.81529 3.70417,24.87085 18.52085,24.87085 h 8.11389 c 0.88195,0 2.11667,-0.52917 2.46945,-1.94028 1.05833,-4.40973 2.11666,-8.81945 3.35139,-13.22918 h -8.64306 c -3.52778,0 -5.99723,-0.70555 -7.23195,-2.29306 -1.23473,-1.5875 -1.23473,-4.23333 -0.17639,-8.29028 8.64306,-34.74863 17.46251,-69.85005 26.10557,-104.598681 0.35278,-1.234723 -0.35278,-1.940279 -1.41111,-1.940279 h -14.11112 c -1.5875,6.350005 -3.52778,13.229176 -4.93889,19.402791 z"
     id="text14"
     aria-label="kitl" />
</svg>
