<?xml version="1.0" encoding="UTF-8" standalone="no"?>
<!DOCTYPE svg PUBLIC "-//W3C//DTD SVG 1.1//EN" "http://www.w3.org/Graphics/SVG/1.1/DTD/svg11.dtd">
<!-- Created with Vectornator (http://vectornator.io/) -->
<svg height="1024.0px" stroke-miterlimit="10" style="fill-rule:nonzero;clip-rule:evenodd;stroke-linecap:round;stroke-linejoin:round;" version="1.1" viewBox="0 0 2048 1024" width="2048.0px" xml:space="preserve" xmlns="http://www.w3.org/2000/svg" xmlns:xlink="http://www.w3.org/1999/xlink">
<defs/>
<g id="레이어-1">
<path d="M136.811 110L339.783 110L384.209 80.8352L424.609 110L884.456 110L884.456 914L683.192 914L639.363 943.998L596.703 914L136.811 914L136.811 110Z" fill="#ffffff" fill-rule="nonzero" opacity="0.998593" stroke="none"/>
</g>
<g id="레이어-2-복사-복사">
<path d="M363.406 31.625L362.875 61.9688C340.538 69.1265 323.111 87.1967 317 110L128 110L110 128C110 129.5 110 894.5 110 896L128 914L260.656 914C258.412 905.072 256.557 896.071 255.312 887C254.901 884.002 254.701 881.004 254.406 878L146 878C146 843.258 146 180.742 146 146L317 146C324.936 175.613 351.88 197.437 384 197.438C416.12 197.438 443.064 175.613 451 146L535.25 146C538.754 140.627 543.356 133.575 544.344 132.062C546.099 129.375 556.461 113.679 558.625 110.344C558.659 110.291 558.804 110.061 558.844 110L451 110C444.945 87.4068 427.791 69.4488 405.75 62.1562L406.281 32.375L363.406 31.625ZM384 101.438C391.699 101.438 398.585 104.763 403.438 110C407.828 114.739 410.562 121.034 410.562 128C410.562 134.966 407.828 141.261 403.438 146C398.585 151.237 391.699 154.563 384 154.562C376.301 154.562 369.415 151.237 364.562 146C360.172 141.261 357.438 134.966 357.438 128C357.438 121.034 360.172 114.739 364.562 110C369.415 104.763 376.301 101.437 384 101.438ZM757.062 110C759.228 120.681 761.336 131.29 763.562 142.031C763.78 143.082 764.073 144.416 764.406 146L878 146L878 878L707 878C699.064 848.387 672.12 826.563 640 826.562C607.88 826.562 580.936 848.387 573 878L385.875 878C386.036 881.011 386.248 884.038 386.656 887.094C387.851 896.037 390.078 905.052 393.156 914L573 914C579.155 936.969 596.803 955.108 619.375 962.156L618.562 1007.62L661.438 1008.38L662.25 961.719C684.056 954.323 700.99 936.427 707 914L896 914L914 896L914 128L896 110L757.062 110ZM640 869.438C647.699 869.438 654.585 872.763 659.438 878C663.828 882.739 666.563 889.034 666.562 896C666.562 902.966 663.828 909.261 659.438 914C654.585 919.237 647.699 922.562 640 922.562C632.301 922.562 625.415 919.237 620.562 914C616.172 909.261 613.437 902.966 613.438 896C613.438 889.034 616.172 882.739 620.562 878C625.415 872.763 632.301 869.438 640 869.438Z" fill="#9daab1" fill-rule="nonzero" opacity="1" stroke="none"/>
<path d="M673.375 37.3438C671.214 37.4125 669.055 37.8697 666.969 38.4375C665.298 38.8924 663.738 39.636 662.188 40.4062C660.999 40.9963 659.866 41.7359 658.781 42.5C654.647 45.4134 651.904 49.7313 649.031 53.7812C647.294 56.2302 645.598 58.7075 643.906 61.1875C641.411 64.8445 638.945 68.5277 636.5 72.2188C633.609 76.5841 630.755 80.9503 627.906 85.3438C624.323 90.871 620.754 96.399 617.188 101.938C610.259 112.698 603.429 123.544 596.562 134.344C579.217 161.625 561.955 188.948 544.594 216.219C527.315 243.36 509.888 270.424 493 297.812C486.417 308.488 480.039 319.273 473.594 330.031C466.616 341.678 459.8 353.418 453.031 365.188C441.748 384.806 430.734 404.57 420.125 424.562C412.393 439.134 404.677 453.739 397.438 468.562C394.36 474.863 391.422 481.235 388.469 487.594C378.221 509.66 368.643 532.022 359.562 554.594C349.244 580.242 339.687 606.223 330.906 632.438C328 641.115 325.203 649.809 322.531 658.562C322.334 659.209 322.133 659.853 321.938 660.5C321.283 660.87 320.664 661.301 320 661.656C316.299 663.633 312.598 665.589 309 667.75C305.954 669.58 303.013 671.57 300.031 673.5C296.71 675.65 293.744 678.331 291.438 681.562C289.465 684.326 287.926 687.395 286.969 690.656C285.151 696.853 285.424 703.473 287.625 709.531C288.949 713.175 291.123 716.333 293.156 719.594C294.552 721.832 296.049 724.017 297.5 726.219C293.431 727.983 289.362 729.722 285.312 731.531C281.49 733.239 277.334 734.882 274.031 737.469C268.597 741.725 264.863 747.835 263.688 754.656C263.274 757.054 263.196 759.394 263.406 761.812C263.58 763.814 263.996 765.742 264.594 767.656C265.848 771.675 268.3 775.303 270.5 778.844C275.183 786.382 280.243 793.648 285.344 800.906C288.926 806.003 292.786 811.188 294.281 817.344C295.454 822.173 295.768 827.172 295.906 832.125C296.095 838.876 295.814 845.631 295.562 852.375C295.246 860.875 295.495 869.378 296.312 877.844C298.756 903.148 306.068 927.901 316.938 950.844C322.367 962.303 328.661 973.501 336.156 983.75C343.021 993.262 356.269 995.428 365.781 988.562C375.293 981.697 377.459 968.418 370.594 958.906C370.646 958.976 370.419 958.645 370.406 958.625C370.318 958.487 370.278 958.424 370.188 958.281C369.893 957.815 369.631 957.346 369.344 956.875C368.461 955.426 367.578 953.95 366.75 952.469C364.533 948.504 362.501 944.466 360.594 940.344C354.895 928.024 350.488 915.101 347.562 901.844C344.702 888.883 343.33 875.554 343.844 862.281C344.134 854.789 345.103 847.329 345.531 839.844C346.154 828.966 346.209 817.938 344.219 807.188C343.084 801.059 341.232 795.079 338.719 789.375C336.166 783.582 332.944 778.174 329.594 772.812C334.467 770.939 339.352 769.079 344.156 767.031C350.537 764.312 357.207 761.933 362.094 756.75C363.01 755.778 363.881 754.745 364.656 753.656C365.501 752.47 366.278 751.236 366.938 749.938C367.627 748.58 368.246 747.167 368.719 745.719C369.19 744.275 369.538 742.78 369.781 741.281C370.013 739.857 370.105 738.412 370.125 736.969C370.143 735.652 370.035 734.339 369.875 733.031C369.504 729.992 368.604 727.049 367.312 724.281C365.768 720.971 363.368 718.047 361.188 715.125C359.885 713.379 358.588 711.618 357.281 709.875C358.19 709.359 359.135 708.918 360.031 708.375C361.349 707.577 362.645 706.776 363.938 705.938C364.445 705.608 365.1 705.418 365.469 704.938C369.508 699.673 373.22 694.169 377.094 688.781C377.367 688.401 377.477 687.685 377.625 687.25C377.903 686.429 378.186 685.601 378.469 684.781C379.567 681.599 380.7 678.448 381.844 675.281C385.258 665.825 388.782 656.397 392.438 647.031C409.043 604.491 427.772 562.801 447.5 521.625C451.21 513.881 455.056 506.221 458.812 498.5C466.464 482.771 474.159 467.072 482.25 451.562C488.711 439.179 495.424 426.914 502.062 414.625C517.167 386.665 532.24 358.691 547.438 330.781C553.503 319.641 559.46 308.435 565.5 297.281C574.843 280.029 584.179 262.766 593.781 245.656C598.239 237.713 602.813 229.84 607.344 221.938C611.477 214.728 615.582 207.496 619.812 200.344C632.744 178.482 645.96 156.803 659.5 135.312C659.903 137.96 660.351 140.602 660.75 143.25C663.96 164.582 666.797 185.936 669.688 207.312C671.785 222.828 673.83 238.353 675.875 253.875C677.49 266.132 679.184 278.396 680.781 290.656C684.544 319.535 688.391 348.387 691.781 377.312C694.681 402.05 697.321 426.81 699.469 451.625C701.202 471.656 702.673 491.73 703.656 511.812C704.474 528.51 705 545.218 704.844 561.938C704.723 574.836 704.251 587.822 702.594 600.625C701.54 608.771 699.982 616.859 698.062 624.844C693.233 644.928 685.892 664.447 675.281 682.219C669.606 691.725 662.97 700.652 655.594 708.906C646.096 719.534 635.183 728.765 623.438 736.812C608.451 747.08 591.816 754.773 574.625 760.531C562.527 764.584 550.076 767.424 537.469 769.344C518.996 772.156 500.303 772.925 481.656 771.75C472.464 771.171 463.283 770.101 454.188 768.625C456.511 759.849 459.267 751.175 462.219 742.594C471.241 716.362 481.626 690.644 492.406 665.094C509.994 623.409 528.994 582.301 548.469 541.469C557.737 522.036 567.176 502.69 576.812 483.438C584.339 468.401 591.939 453.417 599.938 438.625C602.541 434.159 601.028 428.416 596.562 425.812C592.097 423.209 586.385 424.722 583.781 429.188C572.957 446.469 562.656 464.074 552.438 481.719C540.567 502.216 528.869 522.824 517.312 543.5C489 594.152 461.281 645.152 434.969 696.875C429.197 708.22 423.636 719.671 418.281 731.219C413.485 741.563 408.822 752.036 405.156 762.844C401.155 774.64 398.072 787.858 404.25 799.562C407.229 805.207 411.919 809.66 417.75 812.281C419.47 813.054 421.311 813.547 423.125 814.062C425.373 814.702 427.61 815.332 429.875 815.906C449.598 820.905 469.802 823.556 490.125 824.281C499.795 824.626 509.461 824.508 519.125 824.062C536.149 823.278 553.034 821.101 569.719 817.656C579.596 815.617 589.405 813.245 599.031 810.219C623.594 802.496 647.272 791.531 668.406 776.75C676.122 771.354 683.473 765.396 690.438 759.062C697.316 752.808 703.87 746.132 709.875 739.031C721.679 725.073 731.725 709.545 739.812 693.156C744.242 684.18 748.051 674.887 751.344 665.438C757.993 646.359 762.522 626.464 764.938 606.406C766.805 590.896 767.268 575.235 767.281 559.625C767.3 537.691 766.26 515.754 764.781 493.875C762.732 463.544 759.798 433.278 756.469 403.062C752.687 368.741 748.339 334.483 743.594 300.281C738.789 265.652 733.147 231.123 726.938 196.719C722.628 172.841 718.165 148.972 713.688 125.125C712.115 116.752 710.484 108.409 708.938 100.031C707.998 94.9401 707.024 89.8369 706.062 84.75C705.192 80.1488 704.336 75.5645 703.438 70.9688C702.911 68.2776 702.358 65.5936 701.812 62.9062C700.96 58.7052 700.193 54.5868 697.938 50.8125C697.299 49.7439 696.629 48.6535 695.844 47.6875C694.815 46.4212 693.745 45.1802 692.5 44.125C690.923 42.7881 689.274 41.512 687.438 40.5625C685.302 39.4584 683.031 38.5345 680.688 38C678.304 37.4564 675.819 37.266 673.375 37.3438ZM451.219 783.375C451.221 783.418 451.248 783.457 451.25 783.5C451.261 783.73 451.314 784.077 451.25 784.312C451.239 784.355 451.222 784.231 451.219 784.188C451.212 784.104 451.221 784.021 451.219 783.938C451.215 783.823 451.217 783.708 451.219 783.594C451.22 783.512 451.216 783.448 451.219 783.375Z" fill="#366ead" fill-rule="nonzero" opacity="1" stroke="none"/>
<path d="M1046.74 335.849C1040.61 335.849 1036.31 337.391 1031.84 341.006C1028.44 343.745 1025.15 348.523 1022.81 357.099C1022.81 487.737 1022.81 743.827 1022.81 873.974C1024.17 882.742 1027.11 886.933 1031.09 889.849C1037.33 894.426 1042.69 896.068 1048.59 896.068C1055.85 896.068 1060.82 894.182 1065.81 889.912C1069.09 887.093 1072.09 882.357 1072.56 871.287C1072.56 829.08 1072.56 745.92 1072.56 704.131C1072.56 696.324 1076.95 689.184 1083.93 685.693C1087.07 684.126 1089.56 682.855 1093.71 681.818C1093.71 681.818 1091.12 682.89 1091.93 682.349C1100.29 676.776 1111.44 678.045 1118.34 685.349C1139.49 707.752 1158.98 728.938 1176.77 748.912C1194.5 768.818 1212.66 789.631 1231.31 811.381C1247.91 829.834 1280.29 865.814 1297.09 884.474C1297.11 884.498 1297.13 884.513 1297.15 884.537C1301.75 889.123 1305.72 891.587 1308.87 892.787C1313.12 894.406 1317.2 895.13 1321.49 895.131C1329.46 895.131 1333.54 893.113 1337.09 889.568C1341.36 885.297 1342.65 881.89 1342.65 876.787C1342.65 876.434 1340.38 867.647 1331.74 853.818C1288.96 806.13 1205.35 712.887 1163.21 665.912C1155.13 656.908 1156.5 642.919 1166.18 635.662C1187.7 619.522 1207.67 602.232 1226.15 583.756C1244.69 565.215 1264.59 543.503 1285.74 518.756C1292.56 509.34 1294.37 502.706 1294.37 499.006C1294.37 494.12 1293.16 491.131 1288.93 487.224C1284.99 483.591 1280.43 481.568 1272.31 481.568C1268.53 481.568 1264.41 482.21 1259.77 483.756C1256.45 484.862 1252.14 487.237 1247.15 491.193C1233.65 505.888 1221.33 519.543 1210.43 531.912C1210.41 531.934 1210.32 532.042 1210.24 532.131C1210.09 532.308 1210.07 532.34 1210.09 532.318C1198.44 545.528 1187.08 557.695 1175.96 568.818C1164.72 580.063 1153.39 590.4 1142.02 599.818C1130.41 609.444 1117.72 618.474 1103.99 626.974C1090.26 635.474 1072.56 625.592 1072.56 609.443C1072.56 545.841 1072.56 420.401 1072.56 355.037C1069.9 347.464 1066.59 343.311 1063.18 340.912C1058.25 337.445 1053.32 335.849 1046.74 335.849Z" fill="#366ead" fill-rule="nonzero" opacity="1" stroke="none"/>
<path d="M1402.93 414.27C1393.92 414.27 1387.44 416.945 1380.84 423.551C1374.2 430.194 1371.56 436.65 1371.56 445.614C1371.56 454.624 1374.2 460.799 1380.62 467.02C1387.21 473.411 1393.78 476.051 1402.93 476.051C1413 476.051 1419.77 473.206 1426.15 467.02C1432.61 460.761 1435.21 454.569 1435.21 445.614C1435.21 436.601 1432.54 430.158 1425.93 423.551C1419.47 417.09 1412.77 414.27 1402.93 414.27ZM1403.76 499.193C1396.73 499.193 1392.17 500.949 1387.92 504.381C1384.54 507.111 1381.27 511.863 1378.92 520.381C1379.62 608.862 1380.98 780.648 1381.67 868.474C1383.13 878.459 1386.29 883.049 1389.58 885.631C1394.74 889.692 1399.77 891.443 1406.54 891.443C1412.91 891.443 1418.25 889.651 1424.29 884.818C1427.8 882.011 1430.95 877.287 1431.42 865.787C1430.73 778.356 1429.34 606.336 1428.64 517.912C1426.47 510.57 1423.46 506.785 1420.01 504.443C1414.42 500.648 1409.45 499.193 1403.76 499.193Z" fill="#366ead" fill-rule="nonzero" opacity="1" stroke="none"/>
<path d="M1613.06 338.631C1606.92 338.631 1602.32 340.213 1597.4 344.037C1593.79 346.846 1590.5 351.527 1588.18 360.006C1588.18 396.196 1588.18 464.253 1588.18 499.006C1588.18 510.389 1578.97 519.599 1567.59 519.599C1556.91 519.599 1535.57 519.599 1524.9 519.599C1511.52 519.599 1505.4 522.95 1502.15 526.318C1496.52 532.16 1495.37 536.166 1495.37 539.849C1495.37 543.992 1496.4 546.891 1500.65 550.974C1504.06 554.249 1511.05 557.94 1523.24 560.068C1535.27 560.068 1556.5 560.068 1567.59 560.068C1578.97 560.068 1588.18 569.31 1588.18 580.693C1588.18 616.196 1588.18 687.19 1588.18 722.693C1588.18 747.359 1588.34 772.185 1588.65 797.162C1588.95 821.625 1589.11 845.309 1589.12 868.318C1590.55 878.24 1593.68 882.735 1597.21 885.412C1603.03 889.825 1608.11 891.443 1613.99 891.443C1619.47 891.443 1625.16 889.723 1632.24 884.412C1636 881.597 1638.87 877.561 1638.87 866.568C1638.87 847.496 1638.71 828.421 1638.4 809.349C1638.09 790.056 1637.93 770.767 1637.93 751.474C1637.93 708.778 1637.93 623.389 1637.93 580.693C1637.93 569.31 1647.17 560.068 1658.56 560.068C1677.51 560.068 1714 560.068 1734.37 560.068C1745.19 556.977 1751.93 553.149 1755.21 550.006C1758.5 546.864 1759.52 544.458 1759.52 539.849C1759.52 536.625 1758.69 533.651 1754.87 529.287C1752.22 526.261 1746.69 522.561 1736.99 519.599C1715.89 519.599 1678.17 519.599 1658.56 519.599C1647.17 519.599 1637.93 510.389 1637.93 499.006C1637.93 463.572 1637.93 394.156 1637.93 357.256C1635.77 349.96 1632.78 346.215 1629.34 343.881C1623.74 340.086 1618.74 338.631 1613.06 338.631Z" fill="#366ead" fill-rule="nonzero" opacity="1" stroke="none"/>
<path d="M1811.24 338.631C1805.11 338.631 1800.84 340.203 1796.36 343.818C1792.77 346.723 1789.57 351.297 1787.3 359.099C1787.3 486.47 1787.3 735.75 1787.3 862.662C1788.32 868.272 1789.49 872.432 1790.27 874.256C1790.32 874.384 1791.91 876.812 1795.49 880.162C1805.55 886.717 1822.84 898.006 1832.58 904.349C1839.22 907.801 1844.26 908.772 1848.08 908.631C1853.59 908.427 1857.22 907.235 1860.05 905.537C1863.43 903.509 1865.81 901.13 1867.83 897.756C1867.91 897.627 1867.97 897.475 1867.99 897.443C1869.66 894.549 1870.46 891.734 1870.46 887.943C1870.46 884.438 1868.3 877.735 1855.68 868.224C1854.83 867.8 1854.13 867.434 1853.08 866.912C1849.6 865.169 1846.15 862.884 1843.08 859.818C1839.22 855.953 1837.05 850.691 1837.05 845.224C1837.05 723.295 1837.05 481.508 1837.05 357.506C1834 350.44 1830.5 346.088 1826.93 343.474C1822.45 340.207 1817.81 338.631 1811.24 338.631Z" fill="#366ead" fill-rule="nonzero" opacity="1" stroke="none"/>
</g>
</svg>
