<?xml version="1.0" standalone="no"?>
<!DOCTYPE svg PUBLIC "-//W3C//DTD SVG 20010904//EN"
 "http://www.w3.org/TR/2001/REC-SVG-20010904/DTD/svg10.dtd">
<svg version="1.0" xmlns="http://www.w3.org/2000/svg"
 width="1000.000000pt" height="1000.000000pt" viewBox="0 0 1000.000000 1000.000000"
 preserveAspectRatio="xMidYMid meet">
<metadata>
Created by potrace 1.14, written by Peter Selinger 2001-2017
</metadata>
<g transform="translate(0.000000,1000.000000) scale(0.100000,-0.100000)"
fill="#000000" stroke="none">
<path d="M7354 8714 c-17 -7 -46 -27 -63 -45 -66 -66 -63 -11 -63 -1011 l0
-907 -41 -16 c-136 -54 -282 -196 -345 -335 -45 -100 -56 -160 -56 -290 1
-107 5 -136 27 -201 71 -209 225 -363 435 -435 60 -21 101 -28 182 -30 131 -4
216 13 330 69 68 33 102 58 170 127 91 91 133 158 169 270 28 88 31 103 32
190 2 94 -6 147 -36 235 -61 181 -219 347 -395 412 -25 9 -47 18 -50 21 -3 2
-5 407 -5 901 l0 897 -26 50 c-37 72 -92 107 -171 110 -35 1 -77 -4 -94 -12z"/>
<path d="M2488 8615 c-2 -2 -37 -5 -78 -8 -236 -18 -514 -120 -733 -269 -165
-114 -341 -299 -447 -473 -42 -68 -115 -216 -135 -275 -1 -3 -4 -12 -7 -20
-12 -30 -46 -156 -53 -190 -7 -39 -10 -56 -24 -145 -12 -73 -6 -361 8 -430 62
-308 153 -510 327 -730 101 -127 3862 -3880 3963 -3954 172 -127 345 -210 542
-261 155 -40 206 -45 414 -44 193 1 292 16 458 69 84 28 187 71 187 79 0 3
-778 783 -1728 1733 -1385 1386 -1732 1738 -1750 1776 -38 82 -31 171 21 248
35 53 92 94 152 110 48 13 134 5 178 -17 18 -9 1042 -1025 2277 -2259 1897
-1895 2253 -2246 2294 -2264 144 -62 310 21 350 175 15 57 12 102 -11 164 -14
38 -98 127 -525 554 -279 280 -508 513 -508 517 0 4 16 47 35 94 28 70 51 138
60 175 0 3 5 23 10 45 4 22 10 47 12 55 35 147 36 418 1 595 -5 28 -12 61 -14
75 -9 46 -72 224 -100 285 -39 84 -107 198 -167 280 -30 42 -471 491 -1086
1108 -570 570 -1038 1037 -1041 1037 -3 0 -5 -188 -6 -417 0 -403 -1 -420 -21
-465 -24 -53 -74 -107 -124 -134 -25 -14 -55 -19 -114 -19 -92 0 -141 20 -193
80 -69 78 -66 37 -67 798 l-2 689 -291 291 -292 292 0 -411 c0 -462 -2 -479
-67 -550 -61 -67 -127 -94 -216 -88 -106 8 -198 82 -228 186 -5 20 -9 309 -9
709 l-1 675 -72 70 c-307 298 -659 447 -1081 458 -53 2 -97 2 -98 1z"/>
<path d="M4763 7583 c4 -5 120 -122 259 -260 l252 -253 866 0 865 0 -2 242
c-1 134 -2 251 -2 261 -1 16 -61 17 -1123 17 -617 0 -1118 -3 -1115 -7z"/>
<path d="M7839 7548 c-1 -2 -3 -121 -4 -265 l-1 -263 95 -46 c121 -59 166 -90
258 -177 130 -124 228 -299 269 -482 25 -112 25 -304 0 -424 -25 -115 -86
-252 -160 -355 -82 -115 -241 -246 -366 -302 -80 -36 -173 -65 -250 -79 -28
-5 -261 -13 -451 -15 -22 0 11 -37 225 -250 177 -177 257 -250 272 -250 81 0
323 75 456 142 226 113 460 326 595 543 31 49 108 205 129 262 26 68 70 236
79 298 13 90 12 343 -1 430 -74 493 -377 906 -819 1121 -127 61 -320 128 -326
112z"/>
</g>
</svg>
