<?xml version="1.0" standalone="no"?>
<!DOCTYPE svg PUBLIC "-//W3C//DTD SVG 20010904//EN"
 "http://www.w3.org/TR/2001/REC-SVG-20010904/DTD/svg10.dtd">
<svg version="1.0" xmlns="http://www.w3.org/2000/svg"
 width="700.000000pt" height="700.000000pt" viewBox="0 0 700.000000 700.000000"
 preserveAspectRatio="xMidYMid meet">
<metadata>
Created by potrace 1.14, written by Peter Selinger 2001-2017
</metadata>
<g transform="translate(0.000000,700.000000) scale(0.100000,-0.100000)"
fill="#000000" stroke="none">
<path d="M2490 6707 c0 -119 -5 -131 -61 -157 -109 -49 -200 -145 -240 -252
l-22 -58 -646 0 -645 0 -58 -57 -58 -57 0 -2625 0 -2625 57 -58 57 -58 451 0
451 0 -18 87 c-10 49 -18 100 -18 115 l0 28 -372 2 -373 3 0 2505 0 2505 587
3 586 2 16 -46 c106 -311 516 -409 762 -182 52 48 99 119 120 181 l16 47 291
2 290 3 73 113 73 112 -363 0 -363 0 -22 58 c-40 107 -139 211 -243 255 l-47
19 -3 102 -3 101 -137 3 -138 3 0 -74z m216 -417 c24 -12 54 -39 70 -62 24
-35 29 -51 29 -103 0 -52 -5 -68 -29 -103 -33 -48 -95 -82 -151 -82 -56 0
-118 34 -151 82 -24 35 -29 51 -29 103 0 52 5 68 28 103 54 76 149 102 233 62z"/>
<path d="M4524 6721 c-62 -38 -79 -63 -641 -946 -584 -919 -723 -1148 -961
-1585 -267 -490 -491 -1006 -666 -1535 -52 -157 -59 -172 -89 -189 -168 -95
-210 -145 -210 -246 0 -49 5 -68 37 -120 20 -35 35 -64 34 -65 -2 -2 -34 -17
-73 -34 -82 -38 -111 -62 -136 -116 -38 -83 -24 -128 98 -311 44 -66 85 -134
91 -153 7 -21 12 -101 12 -209 0 -267 32 -438 121 -652 51 -122 138 -269 184
-309 30 -26 44 -31 86 -31 63 0 100 21 129 73 31 54 23 103 -34 201 -50 88
-96 207 -129 336 -20 79 -22 105 -19 353 3 301 -2 339 -64 461 -19 38 -32 71
-29 74 3 3 40 20 81 37 94 39 141 75 165 129 33 72 19 150 -39 224 l-31 39 26
14 c52 28 104 116 168 288 148 393 294 723 536 1211 150 304 734 1389 949
1765 144 252 382 647 387 642 8 -8 164 -1163 217 -1612 76 -635 110 -1207 87
-1467 -25 -294 -118 -560 -260 -748 -102 -136 -277 -283 -426 -357 -259 -130
-591 -186 -907 -152 -57 6 -105 13 -107 15 -8 8 37 149 105 333 144 384 395
944 700 1559 108 216 194 400 192 409 -2 9 -16 25 -31 37 -26 19 -30 19 -54 6
-30 -17 -114 -152 -330 -530 -436 -761 -825 -1507 -918 -1760 -22 -58 -28 -94
-29 -157 -1 -75 1 -85 29 -124 41 -58 96 -84 245 -113 455 -91 962 -27 1354
170 476 240 775 682 851 1262 31 232 17 704 -36 1227 -67 676 -146 1204 -309
2070 -89 477 -92 487 -119 532 -42 67 -168 96 -237 54z"/>
<path d="M5185 6218 c3 -13 13 -63 23 -113 l18 -90 389 -5 390 -5 0 -2505 0
-2505 -587 -3 -586 -2 -16 46 c-106 311 -516 409 -762 182 -52 -48 -99 -119
-120 -182 l-16 -46 -640 0 -639 0 7 -47 c4 -27 14 -77 23 -113 l16 -65 616 -3
616 -2 21 -58 c39 -107 163 -229 265 -263 l39 -13 -7 -152 -7 -151 39 -6 c21
-4 86 -7 146 -7 l107 0 0 158 0 157 59 27 c105 49 200 154 237 262 l16 46 647
0 647 0 57 58 57 58 0 2624 0 2624 -57 58 -57 58 -473 0 -473 0 5 -22z m-729
-5178 c24 -12 54 -39 70 -62 24 -35 29 -51 29 -103 0 -52 -5 -68 -29 -103 -74
-107 -228 -107 -302 0 -24 35 -29 51 -29 103 0 52 5 68 28 103 54 76 149 102
233 62z"/>
</g>
</svg>
